<?xml version="1.0" encoding="iso-8859-1"?>
<!-- Generator: Adobe Illustrator 18.1.0, SVG Export Plug-In . SVG Version: 6.00 Build 0)  -->
<!DOCTYPE svg PUBLIC "-//W3C//DTD SVG 1.1//EN" "http://www.w3.org/Graphics/SVG/1.1/DTD/svg11.dtd">
<svg version="1.1" xmlns="http://www.w3.org/2000/svg" xmlns:xlink="http://www.w3.org/1999/xlink" x="0px" y="0px"
	 viewBox="0 0 32 32" style="enable-background:new 0 0 32 32;" xml:space="preserve">
<g id="heart">
</g>
<g id="power">
</g>
<g id="logo">
	<path d="M14.168,9.419c0.657-2.35,0.061-4.977-1.783-6.825C10.546,0.763,7.95,0.162,5.613,0.796L9.57,4.752L8.532,8.627
		l-3.88,1.038L0.696,5.712c-0.632,2.335-0.032,4.932,1.803,6.768c1.923,1.924,4.694,2.488,7.118,1.7l0.022,0.022L25.917,30.48
		c0.644,0.643,1.488,0.968,2.332,0.968c0.845,0,1.687-0.326,2.333-0.968c1.286-1.284,1.286-3.371,0-4.665L14.168,9.419z
		 M28.533,29.927c-0.693,0-1.255-0.564-1.255-1.26c0-0.698,0.562-1.26,1.255-1.26c0.698,0,1.262,0.562,1.262,1.26
		C29.796,29.363,29.232,29.927,28.533,29.927z"/>
	<g>
		<rect x="22.239" y="2.299" transform="matrix(0.707 0.7072 -0.7072 0.707 11.5564 -17.3528)" width="8.965" height="5.943"/>
		<path d="M7.174,24.593c-0.376,0.376-0.992,0.376-1.368,0c-0.376-0.376-0.376-0.992,0-1.368l5.963-5.962l-1.689-1.689l-7.523,7.523
			L0.008,32l8.905-2.548l7.523-7.523l-3.299-3.299L7.174,24.593z"/>
		<path d="M19.236,9.795c0.376-0.376,0.992-0.376,1.368,0c0.376,0.378,0.376,0.993,0,1.369l-1.878,1.878l3.3,3.297l4.068-4.068
			l-6.356-6.356l-4.071,4.071l1.69,1.688L19.236,9.795z"/>
	</g>
</g>
</svg>
