<?xml version="1.0" encoding="utf-8"?>
<!-- Generator: Adobe Illustrator 18.1.0, SVG Export Plug-In . SVG Version: 6.00 Build 0)  -->
<!DOCTYPE svg PUBLIC "-//W3C//DTD SVG 1.1//EN" "http://www.w3.org/Graphics/SVG/1.1/DTD/svg11.dtd">
<svg version="1.1" id="Layer_10" xmlns="http://www.w3.org/2000/svg" xmlns:xlink="http://www.w3.org/1999/xlink" x="0px" y="0px"
	 viewBox="-247 370.9 32 32" enable-background="new -247 370.9 32 32" xml:space="preserve">
<path d="M-225.4,372.7h-2.5v-1.8h-6.5v1.8h-2.3c-1.5,0-2.8,1.2-2.8,2.8v24.6c0,1.5,1.2,2.8,2.8,2.8h11.3c1.5,0,2.8-1.2,2.8-2.8
	v-24.6C-222.6,374-223.8,372.7-225.4,372.7z M-224.4,400.1c0,0.5-0.4,0.9-0.9,0.9h-11.3c-0.5,0-0.9-0.4-0.9-0.9v-24.6
	c0-0.5,0.4-0.9,0.9-0.9h11.3c0.5,0,0.9,0.4,0.9,0.9C-224.4,375.5-224.4,400.1-224.4,400.1z M-225.4,400h-11.1v-4.1h11.1L-225.4,400
	L-225.4,400z M-225.4,394.9h-11.1v-4.1h11.1L-225.4,394.9L-225.4,394.9z M-225.4,389.9h-11.1v-4.1h11.1L-225.4,389.9L-225.4,389.9z
	 M-225.4,384.8h-11.1v-4.1h11.1L-225.4,384.8L-225.4,384.8z"/>
</svg>
